<?xml version="1.0" standalone="no"?>
<!DOCTYPE svg PUBLIC "-//W3C//DTD SVG 20010904//EN"
 "http://www.w3.org/TR/2001/REC-SVG-20010904/DTD/svg10.dtd">
<svg version="1.0" xmlns="http://www.w3.org/2000/svg"
 width="500.000000pt" height="500.000000pt" viewBox="0 0 500.000000 500.000000"
 preserveAspectRatio="xMidYMid meet">

<g transform="translate(0.000000,500.000000) scale(0.100000,-0.100000)"
fill="#000000" stroke="none">
<path d="M47 3284 c-4 -4 -7 -362 -7 -796 l0 -788 193 0 192 0 -1 320 -1 320
349 0 348 0 0 -320 0 -320 200 0 200 0 0 398 1 397 225 215 c124 118 242 223
262 232 33 16 81 18 469 18 l432 0 132 163 132 162 -559 3 c-371 2 -581 -1
-624 -8 -169 -29 -281 -133 -310 -290 -9 -54 -13 -58 -162 -202 l-153 -147
-470 2 -470 2 -1 320 -2 320 -184 3 c-101 1 -187 -1 -191 -4z"/>
<path d="M1120 3005 l0 -285 109 0 110 0 90 86 91 86 0 199 0 199 -200 0 -200
0 0 -285z"/>
<path d="M3482 3279 c-121 -20 -222 -94 -271 -198 -26 -55 -26 -59 -26 -281
l0 -225 28 -57 c40 -81 112 -143 196 -168 59 -18 101 -20 399 -22 l334 -3 24
-28 c22 -26 24 -36 24 -148 0 -106 -2 -121 -20 -139 -19 -19 -33 -20 -462 -20
l-443 0 -113 -143 -114 -142 579 -3 c702 -3 731 0 835 96 80 74 108 166 108
357 0 191 -31 295 -107 366 -95 87 -160 99 -559 99 -380 0 -349 -16 -349 179
0 133 1 142 23 163 l23 23 449 3 450 3 0 149 0 150 -477 -1 c-263 -1 -502 -5
-531 -10z"/>
<path d="M1846 2698 l-178 -171 4 -286 c3 -284 3 -286 29 -342 49 -103 140
-169 266 -189 32 -6 241 -10 465 -10 l408 0 110 137 c60 76 110 141 110 145 0
5 -220 8 -489 8 l-490 0 -20 26 c-20 26 -21 37 -21 440 0 228 -4 414 -8 414
-5 0 -88 -77 -186 -172z"/>
<path d="M4680 1840 l0 -140 140 0 140 0 0 140 0 140 -140 0 -140 0 0 -140z"/>
</g>
</svg>
