<?xml version="1.0" encoding="UTF-8"?>
<svg id="katman_1" xmlns="http://www.w3.org/2000/svg" version="1.1" viewBox="0 0 1840 854">
  <!-- Generator: Adobe Illustrator 30.0.0, SVG Export Plug-In . SVG Version: 2.1.1 Build 123)  -->
  <path d="M1729.34,761.66c-1.56-1.55-3.17-5.27-4.1-7.4l-39.25-108.26c-1.4-.32-1.64.2-2.52.97-4.81,4.25-11.08,13.8-15.96,19.04-139.74,149.98-378.03,147.29-518.03-1-2.94-3.12-17.95-21.99-19.98-22.02l-42.66,115.37c-10.64,15.72-33.1,5.62-27.56-12.57l48.77-133.32c-3.97-8.75-9.99-16.84-14.58-25.45-96.6-180.91-41-393.28,135.21-497.83,201.69-119.66,453.53-18.21,526.34,200.27,37.35,112.08,16.05,227.35-47.04,325.11,9.96,31.63,22.79,62.61,34.02,93.91,3.24,9.04,13.25,32.28,13.89,40.15,1.18,14.32-15.98,23.63-26.58,13.03ZM1694.01,577c2.16-1.62,3.82-4.95,5.16-7.33,77.62-137.86,50.2-308.09-66.16-414.19-228.28-208.14-594.04-9.87-554.87,293.87,5.57,43.18,21.33,86.75,42.37,124.64l1.95-1.99,122.78-327.27c4.51-15.26,24.44-17.52,33.2-4.67,39.16,63.07,77.9,126.48,118.15,188.85,1.81,2.81,9.47,16.12,11.91,16.1l128.68-205.34c7.12-11.22,24.3-10.39,30.32,1.33l126.52,335.99ZM1549.01,283.01l-121.61,191.99.08,2.93c17.43,25.36,40.64,56.54,24.37,88.42-19.81,38.82-82.53,31.67-91.56-11.16-5.82-27.59,13.39-56.53,28.23-78.26l.09-1.96-123.62-190.5-122.8,323.21c63.46,90.06,170.24,144.09,281.3,139.29,90-3.89,181.51-48.87,237.48-119.52,2.13-2.68,10.77-13.4,11.52-15.53.38-1.08.77-2,.34-3.16l-123.82-325.77ZM1408.98,503c-9.97,11.96-29.06,39.98-14.48,53.99,8.64,8.3,22.66,7.71,30.02-1.97,11.83-15.56-8.46-38.37-15.54-52.03Z"/>
  <path d="M301,198l.04,237.54c-3.01,141.44-250.19,143.8-249.08-1l.1-235.49c13.8-1.86,28.14-1.16,42.01-.61l.8,1.2.1,236.9c2.52,99.44,164.33,93.87,163.08-5l-.09-230.09,1.55-3.45h41.5Z"/>
  <path d="M788,533h-42l-4.01-35-13.55,24.94c-49.98,35.63-145.43,23.44-150.49-50.4-6.11-89.23,97.64-97.83,163.05-94.54,1.05-35.47-1.03-71.88-44.47-75.04-36.35-2.65-60.77,14.51-62.54,52.04h-44c3.19-50.64,39.05-80.99,88.46-84.04,63.09-3.9,101.2,18.66,104.58,84.5,2.71,52.76-4.12,108.47,2.09,160.91.66,5.57,2.52,11.01,2.87,16.63ZM741.01,409c-45.04-3.7-124-3.33-117.99,61.49,4.13,44.56,63.49,46.67,92.89,25.93,27.5-19.39,25.1-57.49,25.09-87.42Z"/>
  <polygon points="397 501 546 501 546 533 347 533 347 499.5 496 312 355 312 355 279 546 279.5 546 311.5 401.04 493.54 397 501"/>
  <path d="M896,179v305.5c0,2.13,2.47,10.15,3.78,12.22,5.48,8.64,19.51,7.31,28.22,6.28v32c-25.8,1.16-62.44,6.51-71.71-24.79-.52-1.77-2.29-8.49-2.29-9.71V179h42Z"/>
  <polygon points="583.5 604 639 705 639 604 654 604 654 722 632.5 722 576 621 576 722 562 722 562 604 583.5 604"/>
  <polygon points="826 604 826 665 883.5 604 901 604 849.02 660.47 900 722 880.5 722 837.98 671 826 682.5 826 722 811 722 811 604 826 604"/>
  <polygon points="430 604 430 665 486.5 604 505 604 453.21 659.66 502 722 483.5 722 441.5 671.02 430 682.5 430 722 415 722 415 604 430 604"/>
  <path d="M348,604v12h-61v40h55.5c2.91,2.89,1.01,8.14,1.49,11.99l-56.99,1.01v41h63v12h-78v-118h76Z"/>
  <polygon points="213 604 213 616 171 616 171 722 156 722 154.5 616 114.5 616 113.24 614.54 114 604 213 604"/>
  <path d="M739,722h-15v-92c4.74.66,11.24-1.61,15,1.5v90.5Z"/>
  <path d="M737.72,604.28c8.98,8.99-5.74,22.27-13.74,13.24-8.14-9.19,5.56-21.44,13.74-13.24Z"/>
</svg>